<?xml version="1.0" encoding="UTF-8"?>
<svg width="125px" height="42px" viewBox="0 0 125 42" version="1.1" xmlns="http://www.w3.org/2000/svg" xmlns:xlink="http://www.w3.org/1999/xlink">
    <title>2A148E94-FFBF-4060-BFA1-F766BAFAE6F3</title>
    <g stroke="none" stroke-width="1" fill="none" fill-rule="evenodd">
        <g transform="translate(-86.000000, -948.000000)">
            <g transform="translate(86.000000, 948.000000)">
                <path d="M28.906901,6.09259794 L28.906901,24.3154021 L29.8033854,24.3154021 C31.484158,24.3154021 31.9887153,23.3652062 31.9887153,21.5204536 L31.9887153,8.94340206 C31.9887153,7.04279381 31.484158,6.09259794 29.8033854,6.09259794 L28.906901,6.09259794 Z M28.906901,29.1228866 L28.906901,40.9731649 L23.5275608,40.9731649 L23.5275608,1.06169072 L30.1955295,1.06169072 C34.734158,1.06169072 37.3676215,3.633 37.3676215,9.11118557 L37.3676215,20.9614639 C37.3676215,26.4396495 34.734158,29.1228866 30.1955295,29.1228866 L28.906901,29.1228866 L28.906901,29.1228866 Z" fill="#1D428A"></path>
                <path d="M40.2252604,40.9731649 L45.6043837,40.9731649 L45.6043837,9.67017526 L40.2252604,9.67017526 L40.2252604,40.9731649 Z M39.5529514,4.41562887 C39.5529514,2.57109278 41.0657552,1.06169072 42.9149306,1.06169072 C44.7638889,1.06169072 46.3328993,2.57109278 46.3328993,4.41562887 C46.3328993,6.31602062 44.7638889,7.76935052 42.9149306,7.76935052 C41.0657552,7.76935052 39.5529514,6.31602062 39.5529514,4.41562887 L39.5529514,4.41562887 Z" fill="#1D428A"></path>
                <path d="M62.3018663,33.538732 C62.3018663,39.8554021 59.7801649,41.308732 55.577908,41.308732 C51.375434,41.308732 48.8539497,39.8554021 48.8539497,33.538732 L48.8539497,17.1046082 C48.8539497,10.7879381 51.375434,9.33460825 55.577908,9.33460825 C59.7801649,9.33460825 62.3018663,10.7879381 62.3018663,17.1046082 L62.3018663,21.1292474 L56.922526,21.1292474 L56.922526,16.4897629 C56.922526,14.7010825 56.5303819,14.1420928 55.577908,14.1420928 C54.625434,14.1420928 54.2330729,14.7010825 54.2330729,16.4897629 L54.2330729,34.1537938 C54.2330729,35.9424742 54.5694444,36.5014639 55.577908,36.5014639 C56.5865885,36.5014639 56.922526,35.9424742 56.922526,34.1537938 L56.922526,29.3463093 L62.3018663,29.3463093 L62.3018663,33.538732" fill="#1D428A"></path>
                <polyline fill="#1D428A" points="70.9303385 26.5513608 70.9303385 40.9731649 65.5514323 40.9731649 65.5514323 1.06169072 70.9303385 1.06169072 70.9303385 23.3093505 71.2105035 23.3093505 74.124349 9.67017526 79.5032552 9.67017526 75.6371528 23.7564124 79.4472656 40.9731649 74.0121528 40.9731649 71.2105035 26.5513608 70.9303385 26.5513608"></polyline>
                <path d="M84.4338108,0.726340206 C86.3387587,0.726340206 87.8517795,2.1796701 87.8517795,4.08006186 C87.8517795,5.53360825 87.3474392,6.42794845 86.3387587,8.32834021 L84.0416667,12.8002577 L82.4166667,12.4649072 L83.6493056,7.32228866 C82.1362847,6.93086598 81.0718316,5.58946392 81.0718316,4.08006186 C81.0718316,2.1796701 82.5846354,0.726340206 84.4338108,0.726340206" fill="#C8102E"></path>
                <polyline fill="#C8102E" points="100.963108 40.9731649 90.5407986 40.9731649 90.5407986 1.06169072 100.963108 1.06169072 100.963108 6.09259794 95.9201389 6.09259794 95.9201389 18.3903711 100.290582 18.3903711 100.290582 22.7503608 95.9201389 22.7503608 95.9201389 35.9424742 100.963108 35.9424742 100.963108 40.9731649"></polyline>
                <path d="M108.86263,14.4774433 L108.86263,40.9731649 L103.483507,40.9731649 L103.483507,9.67017526 L108.022135,9.67017526 C108.134115,10.0613814 108.3023,10.6762268 108.41428,11.3469278 C109.310981,10.2291649 110.711806,9.33460825 112.72895,9.33460825 C114.35395,9.33460825 115.698568,10.0053093 116.371094,11.5147113 C117.211589,10.2850206 118.612413,9.33460825 120.797526,9.33460825 C123.263021,9.33460825 125,10.8440103 125,14.4213711 L125,40.9731649 L119.620877,40.9731649 L119.620877,15.9866289 C119.620877,14.7010825 119.228733,14.1420928 118.276042,14.1420928 C117.771918,14.1420928 117.323351,14.2538041 116.931207,14.4213711 L116.931207,40.9731649 L111.552083,40.9731649 L111.552083,15.9866289 C111.552083,14.7010825 111.159939,14.1420928 110.207248,14.1420928 C109.703125,14.1420928 109.254774,14.2538041 108.86263,14.4774433" fill="#C8102E"></path>
                <path d="M14.202691,0.0381030928 L4.35373264,0.0381030928 C1.95138889,0.0381030928 0,1.98763918 0,4.38120619 L0,37.6506186 C0,40.0480825 1.95138889,42 4.35373264,42 L14.1957465,42 C16.5976562,42 18.5590278,40.0480825 18.5590278,37.6506186 L18.5590278,4.38120619 C18.5590278,1.98763918 16.6037326,0.0381030928 14.202691,0.0381030928" fill="#FFFFFF"></path>
                <path d="M11.7595486,7.73059794 L11.7699653,7.87261856 C12.0703125,8.0471134 12.2224392,8.18935052 12.5251736,8.38397938 C13.328559,8.88819588 14.3179253,9.78448454 14.1929253,12.873866 C14.4181858,13.5473814 14.5175781,14.8714639 14.7256944,15.2960103 C15.1438802,16.1232371 15.4231771,16.6616598 15.5453559,17.4429897 C15.5453559,17.4429897 15.6660156,18.6588247 15.8233507,18.7467216 C16.6538628,18.9335567 16.4138455,19.0151753 16.5351562,19.1571959 C16.6640625,19.3236804 17.1436632,19.3158866 17.1436632,19.7616495 C17.3101128,19.9837732 17.4329427,20.2145567 17.5266927,20.4546495 L17.5266927,4.38120619 C17.5266927,2.5494433 16.0332031,1.06212371 14.202691,1.06212371 L11.0206163,1.06212371 C11.531901,1.2431134 11.8200955,1.45701031 11.9884983,1.79690722 C12.3995226,1.83197938 12.8882378,2.75078351 12.1269531,4.1077732 C12.4641927,4.33162887 12.2011719,4.6663299 11.9592014,5.05493814 C11.8884549,5.17942268 11.8109809,5.40046392 11.5859375,5.38595876 C11.296875,5.99214433 10.9479167,6.57992784 10.6844618,6.61694845 C10.6043837,6.71545361 10.546441,6.9763299 10.6666667,7.09886598 C11.0538194,7.27227835 11.5258247,7.5097732 11.7595486,7.73059794" fill="#C8102E"></path>
                <path d="M17.5266927,22.6323711 C17.0950521,23.7252371 16.0201823,24.4974742 14.7647569,24.4974742 C13.1215278,24.4974742 11.797092,23.1725258 11.797092,21.5384227 C11.797092,20.1424639 12.7591146,18.9716598 14.0648872,18.6588247 C13.7226562,17.8049691 13.000651,16.4209175 12.7860243,15.9664948 C12.5831163,15.5157526 12.09375,12.7008866 11.9884983,12.1440619 C11.9644097,12.0223918 10.7083333,12.871268 10.7059462,12.9236598 C10.6323785,12.9948866 9.76323785,15.2589897 9.72677951,15.3813093 C9.70920139,15.4585979 9.70724826,15.7608247 9.70724826,15.7608247 C9.70724826,15.7608247 10.1345486,15.8136495 10.3804253,16.5573093 C10.6236979,17.3001031 11.3658854,20.0119175 11.3658854,20.0119175 C11.3658854,20.0119175 11.1651476,20.2193196 11.156467,20.2065464 C12.09375,23.3370619 11.766276,24.6843093 12.186849,25.6020309 C12.7154948,26.8960206 12.8580729,26.7265052 13.3116319,27.8137423 C13.6369358,28.6058969 13.999783,31.7225567 14.1208767,31.8606804 C14.6269531,32.5006392 14.8993056,33.0009588 14.8993056,33.3618557 C14.8993056,33.725134 14.4707031,34.7985155 14.6269531,35.4237526 C14.7217882,35.7913608 14.7712674,36.6159897 14.9431424,36.772732 C14.9431424,36.772732 15.1004774,37.0821031 15.0232205,37.2195773 C15.0008681,37.2672062 14.9559462,37.3390825 14.9761285,37.3955876 C15.2552083,38.3786907 16.156033,40.0547938 14.6970486,40.9326804 L14.7282986,40.9326804 C16.3207465,40.6867423 17.5266927,39.3241237 17.5266927,37.6506186 L17.5266927,22.6323711" fill="#C8102E"></path>
                <path d="M13.7792969,37.0132577 C13.2443576,36.5369691 13.6015625,36.3356289 13.5802951,36.1477113 C13.2276476,34.6943814 12.0705295,33.8154124 12.6690538,33.3356598 C12.5212674,32.8559072 12.2207031,32.2531856 12.2317708,32.254268 C10.4283854,31.2213711 8.89301215,29.5431031 8.63216146,29.2971649 C8.31575521,28.9542371 7.77712674,28.6097938 7.67578125,28.3313814 C7.24240451,27.9343299 5.11697049,24.9263505 4.62196181,23.8187629 L3.7593316,23.6970928 C3.36697049,22.0978454 2.05685764,20.7575258 2.02430556,19.1541649 C2.01215278,18.5479794 2.29969618,17.2494433 2.40690104,16.990299 C2.51171875,16.7276907 3.01367188,16.296433 3.01367188,16.296433 L3.01367188,15.8673402 C1.13194444,15.9208144 1.67317708,15.729 1.34874132,14.9991959 C1.12087674,14.4938969 1.28407118,14.3826186 1.36610243,14.0323299 C1.6187066,12.997701 2.45746528,11.402134 2.80447049,10.6770928 C2.91059028,10.3112165 3.2734375,9.42921649 3.2734375,9.42921649 C4.67599826,6.57992784 5.19943576,6.78949485 6.86523438,6.62885567 L6.94726563,6.51108247 C8.61653646,6.43898969 8.34331597,6.31342268 8.57877604,4.70919588 C8.33550347,4.8133299 8.26323785,4.20692784 8.26323785,4.20692784 C8.13042535,3.29396907 8.51627604,3.46694845 8.69943576,3.44876289 C8.73871528,1.94780412 8.89301215,1.47562887 9.9780816,1.06190722 L4.35590278,1.06190722 C2.51627604,1.06190722 1.02647569,2.5494433 1.02647569,4.38315464 L1.02647569,37.6506186 C1.02647569,39.4864948 2.51627604,40.9738144 4.35590278,40.9738144 L14.202691,40.9738144 C13.0753038,40.3661134 13.7408854,39.2093814 13.7792969,37.0132577" fill="#1D428A"></path>
                <path d="M3.82530382,38.8829072 L3.12217882,38.8829072 L3.12217882,32.8598041 L4.23567708,32.8598041 L5.13085938,37.7950206 C5.05555556,36.6140412 4.9546441,35.1884227 4.9546441,33.9734536 L4.9546441,32.8598041 L5.65798611,32.8598041 L5.65798611,38.8829072 L4.63693576,38.8829072 L3.74197049,34.0572371 C3.80056424,35.1711031 3.82530382,36.0572165 3.82530382,36.9851134 L3.82530382,38.8829072 Z M10.0169271,33.5348351 L9.9750434,33.5348351 C9.92491319,34.2600928 9.82443576,35.5339485 9.79079861,35.9390103 L9.69921875,36.9764536 L10.3266059,36.9764536 L10.234375,35.9390103 C10.2007378,35.5257216 10.0837674,34.2687526 10.0169271,33.5348351 L10.0169271,33.5348351 Z M10.3769531,37.6597113 L9.64887153,37.6597113 L9.54817708,38.8829072 L8.73676215,38.8829072 L9.46462674,32.8598041 L10.6193576,32.8598041 L11.3220486,38.8829072 L10.4772135,38.8829072 L10.3769531,37.6597113 Z M7.02170139,33.6190515 L7.02170139,35.6099381 L7.32291667,35.6099381 C7.60742188,35.6099381 7.68272569,35.5084021 7.68272569,35.1797629 L7.68272569,34.0241134 C7.68272569,33.745268 7.59852431,33.6190515 7.33116319,33.6190515 L7.02170139,33.6190515 Z M7.02170139,36.267866 L7.02170139,38.1236598 L7.33116319,38.1236598 C7.60742188,38.1236598 7.68272569,37.9801237 7.68272569,37.6934845 L7.68272569,36.6727113 C7.68272569,36.3771959 7.59071181,36.267866 7.32291667,36.267866 L7.02170139,36.267866 Z M6.21853299,38.8829072 L6.21853299,32.8598041 L7.38975694,32.8598041 C8.06727431,32.8598041 8.4858941,33.2226495 8.4858941,34.0663299 L8.4858941,34.9606701 C8.4858941,35.5084021 8.31857639,35.7870309 8.08398438,35.9221237 C8.31857639,36.0825464 8.4858941,36.3525155 8.4858941,36.8078041 L8.4858941,37.6854742 C8.4858941,38.5120515 8.04231771,38.8829072 7.38975694,38.8829072 L6.21853299,38.8829072 L6.21853299,38.8829072 Z" fill="#FFFFFF"></path>
            </g>
        </g>
    </g>
</svg>