<?xml version="1.0" standalone="no"?>
<!DOCTYPE svg PUBLIC "-//W3C//DTD SVG 20010904//EN"
 "http://www.w3.org/TR/2001/REC-SVG-20010904/DTD/svg10.dtd">
<svg version="1.0" xmlns="http://www.w3.org/2000/svg"
 width="531.000000pt" height="531.000000pt" viewBox="0 0 531.000000 531.000000"
 preserveAspectRatio="xMidYMid meet">
<metadata>
Created by potrace 1.11, written by Peter Selinger 2001-2013
</metadata>
<g transform="translate(0.000000,531.000000) scale(0.100000,-0.100000)"
fill="#000000" stroke="none">
<path d="M2557 5184 c-2 -3 -170 -6 -373 -7 -392 -3 -385 -2 -479 -54 -124
-68 -203 -197 -211 -344 -2 -37 -4 -71 -5 -75 -1 -5 -1 -11 0 -14 1 -3 2 -943
2 -2090 0 -1335 4 -2103 10 -2135 10 -50 47 -137 62 -143 4 -2 7 -8 7 -14 0
-16 86 -95 132 -122 53 -30 137 -55 172 -52 15 2 29 -1 32 -6 3 -4 9 -6 13 -4
8 5 68 7 136 5 22 0 45 0 50 1 9 1 96 1 190 -1 22 0 45 0 50 1 9 1 96 1 190
-1 22 0 45 0 50 1 9 1 96 1 190 -1 22 0 43 0 48 1 9 1 156 1 160 0 8 -4 77 -4
77 0 0 3 19 4 43 2 l42 -4 -27 27 c-49 49 -56 111 -34 280 3 22 8 75 10 118 4
63 2 82 -12 97 -11 13 -17 40 -17 77 -1 32 -9 74 -17 93 -9 19 -16 39 -16 44
0 5 -4 12 -9 15 -9 7 -38 57 -69 121 -19 39 -20 48 -8 76 7 17 11 34 8 37 -3
3 -7 11 -8 19 -11 54 -41 98 -89 129 -131 85 -286 219 -496 430 -57 58 -271
348 -271 368 0 4 -8 16 -18 27 -22 24 -122 192 -122 205 0 5 -8 9 -17 10 -20
1 -46 5 -78 13 -14 4 -25 19 -33 49 -7 24 -47 111 -88 193 -42 82 -82 167 -89
189 -16 46 -33 135 -30 156 1 8 5 43 9 78 4 36 9 68 11 72 3 3 7 24 11 45 3
22 10 44 15 50 5 6 7 13 4 16 -2 2 13 23 34 46 34 36 59 90 42 93 -3 0 -35 2
-71 3 -98 4 -115 15 -130 78 -7 29 -15 58 -19 63 -9 15 -7 34 14 100 10 33 19
62 20 65 1 3 6 16 12 30 6 14 19 45 29 70 10 25 40 90 67 145 27 55 49 102 49
105 1 9 49 134 56 145 4 5 7 12 7 15 1 19 98 182 135 229 65 81 169 127 278
122 13 0 31 3 40 8 9 5 44 12 77 15 69 8 106 30 117 71 12 47 18 155 9 155
-22 0 -38 108 -21 140 6 11 20 20 30 20 14 0 20 7 20 23 3 136 29 201 96 244
39 26 43 31 25 36 -11 2 -22 3 -24 1z"/>
<path d="M2780 5170 c0 -5 6 -10 13 -10 6 0 40 -27 74 -59 47 -43 64 -67 66
-90 2 -17 6 -34 9 -37 8 -7 -14 -98 -35 -146 -9 -22 -12 -40 -6 -43 5 -4 9
-15 9 -25 0 -23 -57 -120 -71 -120 -5 0 -22 -24 -39 -54 -17 -29 -46 -70 -66
-90 -48 -50 -43 -72 26 -107 30 -15 66 -41 80 -57 14 -16 53 -47 86 -70 105
-70 154 -131 189 -237 24 -69 33 -136 39 -290 2 -44 9 -102 15 -130 7 -27 14
-66 17 -85 15 -102 17 -106 65 -208 21 -45 39 -89 39 -97 0 -8 5 -15 10 -15 6
0 9 -3 8 -7 -1 -5 1 -24 5 -43 4 -19 9 -53 12 -75 14 -114 22 -131 65 -144 22
-6 45 -19 52 -29 7 -10 25 -25 40 -35 15 -9 40 -42 54 -72 15 -30 29 -53 32
-51 6 6 3 2054 -3 2086 -9 48 -11 55 -18 68 -5 6 -6 12 -3 12 10 0 -53 99 -84
133 -31 35 -120 103 -120 92 0 -3 -10 1 -22 9 -13 8 -45 19 -73 24 -68 14
-465 16 -465 2z"/>
<path d="M2840 3765 c-7 -8 -16 -12 -21 -9 -5 3 -9 1 -9 -3 0 -5 -16 -17 -36
-28 -39 -21 -74 -63 -92 -110 -6 -16 -17 -43 -23 -60 -7 -16 -13 -34 -15 -40
-1 -5 -13 -37 -27 -70 -28 -69 -40 -125 -28 -125 5 0 22 -13 37 -30 27 -28 45
-67 65 -137 5 -18 13 -48 18 -65 33 -113 48 -178 43 -182 -3 -4 1 -6 8 -6 7 0
10 -3 7 -6 -3 -4 -2 -15 3 -25 17 -30 22 -89 10 -104 -9 -10 -6 -30 9 -82 35
-122 55 -244 76 -458 9 -88 27 -145 78 -242 88 -170 106 -212 126 -301 12 -52
19 -98 15 -103 -3 -5 -1 -9 3 -9 5 0 9 -8 10 -17 1 -22 12 -103 18 -134 3 -13
7 -41 10 -64 6 -45 24 -95 34 -95 3 0 17 -20 31 -45 14 -25 28 -45 32 -45 5 0
7 -3 6 -7 -1 -5 1 -21 5 -38 4 -16 3 -52 -3 -80 -6 -27 -12 -61 -14 -75 -2
-14 -5 -27 -6 -30 -1 -3 -2 -9 -1 -14 1 -4 -4 -14 -10 -22 -6 -8 -8 -14 -3
-14 5 0 9 -10 10 -22 2 -60 16 -144 31 -182 9 -22 15 -57 15 -76 -1 -19 11
-69 25 -110 32 -97 38 -123 36 -191 -1 -61 -17 -100 -59 -143 l-29 -28 31 5
c71 11 181 83 230 152 45 62 59 95 81 185 3 11 6 1924 4 1950 -1 3 -17 -19
-36 -47 -36 -53 -130 -133 -156 -133 -8 0 -19 -4 -25 -9 -14 -14 -101 -29
-142 -26 -99 9 -165 35 -230 90 -47 41 -112 135 -112 164 0 11 -4 22 -9 25 -5
3 -8 48 -7 98 2 79 6 102 31 153 37 77 106 146 184 181 33 16 61 31 61 35 0 4
-17 43 -37 86 -20 43 -37 80 -38 83 0 3 -7 16 -15 30 -8 14 -15 27 -15 30 -1
3 -13 30 -28 60 -26 52 -49 124 -62 200 -4 19 -8 44 -11 55 -2 11 -5 31 -8 45
-25 150 -45 230 -56 230 -4 0 -13 -7 -20 -15z"/>
</g>
</svg>
